HIERARCHY
ROOT hip
{
  OFFSET 0 0 0
  CHANNELS 6 Xposition Yposition Zposition Zrotation Yrotation Xrotation
  JOINT abdomen
  {
    OFFSET 0 20.6881 -0.73152
    CHANNELS 3 Zrotation Xrotation Yrotation
    JOINT chest
    {
      OFFSET 0 11.7043 -0.48768
      CHANNELS 3 Zrotation Xrotation Yrotation
      JOINT neck
      {
        OFFSET 0 22.1894 -2.19456
        CHANNELS 3 Zrotation Xrotation Yrotation
        JOINT head
        {
          OFFSET -0.24384 7.07133 1.2192
          CHANNELS 3 Zrotation Xrotation Yrotation
          JOINT leftEye
          {
            OFFSET 4.14528 8.04674 8.04672
            CHANNELS 3 Zrotation Xrotation Yrotation
            End Site
            {
              OFFSET 1 0 0
            }
          }
          JOINT rightEye
          {
            OFFSET -3.6576 8.04674 8.04672
            CHANNELS 3 Zrotation Xrotation Yrotation
            End Site
            {
              OFFSET 1 0 0
            }
          }
        }
      }
      JOINT rCollar
      {
        OFFSET -2.68224 19.2634 -4.8768
        CHANNELS 3 Zrotation Xrotation Yrotation
        JOINT rShldr
        {
          OFFSET -8.77824 -1.95073 1.46304
          CHANNELS 3 Zrotation Xrotation Yrotation
          JOINT rForeArm
          {
            OFFSET -28.1742 -1.7115 0.48768
            CHANNELS 3 Zrotation Xrotation Yrotation
            JOINT rHand
            {
              OFFSET -22.5879 0.773209 7.07136
              CHANNELS 3 Zrotation Xrotation Yrotation
              JOINT rThumb1
              {
                OFFSET -1.2192 -0.487915 3.41376
                CHANNELS 3 Zrotation Xrotation Yrotation
                JOINT rThumb2
                {
                  OFFSET -3.37035 -0.52449 3.41376
                  CHANNELS 3 Zrotation Xrotation Yrotation
                  End Site
                  {
                    OFFSET -1.78271 -1.18214 1.43049
                  }
                }
              }
              JOINT rIndex1
              {
                OFFSET -7.75947 0.938293 5.60832
                CHANNELS 3 Zrotation Xrotation Yrotation
                JOINT rIndex2
                {
                  OFFSET -2.54057 -0.884171 1.56538
                  CHANNELS 3 Zrotation Xrotation Yrotation
                  End Site
                  {
                    OFFSET -1.62519 -0.234802 1.16502
                  }
                }
              }
              JOINT rMid1
              {
                OFFSET -8.24714 1.18213 3.41376
                CHANNELS 3 Zrotation Xrotation Yrotation
                JOINT rMid2
                {
                  OFFSET -3.10165 -0.590103 1.0647
                  CHANNELS 3 Zrotation Xrotation Yrotation
                  End Site
                  {
                    OFFSET -2.48547 -0.328903 0.83742
                  }
                }
              }
              JOINT rRing1
              {
                OFFSET -8.82822 0.546677 1.51678
                CHANNELS 3 Zrotation Xrotation Yrotation
                JOINT rRing2
                {
                  OFFSET -2.60934 -0.819778 -0.0198488
                  CHANNELS 3 Zrotation Xrotation Yrotation
                  End Site
                  {
                    OFFSET -2.33842 -0.294052 0.168128
                  }
                }
              }
              JOINT rPinky1
              {
                OFFSET -8.27202 -0.0477905 -0.4584
                CHANNELS 3 Zrotation Xrotation Yrotation
                JOINT rPinky2
                {
                  OFFSET -1.82734 -0.647385 -0.700984
                  CHANNELS 3 Zrotation Xrotation Yrotation
                  End Site
                  {
                    OFFSET -1.69225 -0.51767 -0.607171
                  }
                }
              }
            }
          }
        }
      }
      JOINT lCollar
      {
        OFFSET 2.68224 19.2634 -4.8768
        CHANNELS 3 Zrotation Xrotation Yrotation
        JOINT lShldr
        {
          OFFSET 8.77824 -1.95073 1.46304
          CHANNELS 3 Zrotation Xrotation Yrotation
          JOINT lForeArm
          {
            OFFSET 28.1742 -1.7115 0.48768
            CHANNELS 3 Zrotation Xrotation Yrotation
            JOINT lHand
            {
              OFFSET 22.5879 0.773209 7.07136
              CHANNELS 3 Zrotation Xrotation Yrotation
              JOINT lThumb1
              {
                OFFSET 1.2192 -0.487915 3.41376
                CHANNELS 3 Zrotation Xrotation Yrotation
                JOINT lThumb2
                {
                  OFFSET 3.37035 -0.52449 3.41376
                  CHANNELS 3 Zrotation Xrotation Yrotation
                  End Site
                  {
                    OFFSET 1.78271 -1.18214 1.43049
                  }
                }
              }
              JOINT lIndex1
              {
                OFFSET 7.75947 0.938293 5.60832
                CHANNELS 3 Zrotation Xrotation Yrotation
                JOINT lIndex2
                {
                  OFFSET 2.54057 -0.884171 1.56538
                  CHANNELS 3 Zrotation Xrotation Yrotation
                  End Site
                  {
                    OFFSET 1.62519 -0.234802 1.16502
                  }
                }
              }
              JOINT lMid1
              {
                OFFSET 8.24714 1.18213 3.41376
                CHANNELS 3 Zrotation Xrotation Yrotation
                JOINT lMid2
                {
                  OFFSET 3.10165 -0.590103 1.0647
                  CHANNELS 3 Zrotation Xrotation Yrotation
                  End Site
                  {
                    OFFSET 2.48547 -0.328903 0.83742
                  }
                }
              }
              JOINT lRing1
              {
                OFFSET 8.82822 0.546677 1.51678
                CHANNELS 3 Zrotation Xrotation Yrotation
                JOINT lRing2
                {
                  OFFSET 2.60934 -0.819778 -0.0198488
                  CHANNELS 3 Zrotation Xrotation Yrotation
                  End Site
                  {
                    OFFSET 2.33842 -0.294052 0.168128
                  }
                }
              }
              JOINT lPinky1
              {
                OFFSET 8.27202 -0.0477905 -0.4584
                CHANNELS 3 Zrotation Xrotation Yrotation
                JOINT lPinky2
                {
                  OFFSET 1.82734 -0.647385 -0.700984
                  CHANNELS 3 Zrotation Xrotation Yrotation
                  End Site
                  {
                    OFFSET 1.69225 -0.51767 -0.607171
                  }
                }
              }
            }
          }
        }
      }
    }
  }
  JOINT rButtock
  {
    OFFSET -8.77824 4.35084 1.2192
    CHANNELS 3 Zrotation Xrotation Yrotation
    JOINT rThigh
    {
      OFFSET 0 -1.70687 -2.19456
      CHANNELS 3 Zrotation Xrotation Yrotation
      JOINT rShin
      {
        OFFSET 0 -36.8199 0.73152
        CHANNELS 3 Zrotation Xrotation Yrotation
        JOINT rFoot
        {
          OFFSET 0.73152 -45.1104 -5.12064
          CHANNELS 3 Zrotation Xrotation Yrotation
          End Site
          {
            OFFSET -1.1221 -3.69964 12.103
          }
        }
      }
    }
  }
  JOINT lButtock
  {
    OFFSET 8.77824 4.35084 1.2192
    CHANNELS 3 Zrotation Xrotation Yrotation
    JOINT lThigh
    {
      OFFSET 0 -1.70687 -2.19456
      CHANNELS 3 Zrotation Xrotation Yrotation
      JOINT lShin
      {
        OFFSET 0 -36.8199 0.73152
        CHANNELS 3 Zrotation Xrotation Yrotation
        JOINT lFoot
        {
          OFFSET -0.73152 -45.1104 -5.12064
          CHANNELS 3 Zrotation Xrotation Yrotation
          End Site
          {
            OFFSET 1.1221 -3.69964 12.103
          }
        }
      }
    }
  }
}
MOTION
Frames:	4
Frame Time:	0.00833333
14.3086 84.2733 -0.535381 -193.824 77.7611 163.574 -11.0211 14.1359 2.97937 -0.131328 0.419859 0.566464 5.5147 4.16471 2.44594 -1.79871 -6.11979 3.99386 -0.0 0.0 0.0 -0.0 0.0 0.0 -9.10922e-14 -1.32558e-12 -2.06982e-13 67.2693 23.8262 12.6608 -26.8047 -25.7083 60.4294 -1.02171 -27.4409 -4.18473 1.27655e-09 -5.45506e-11 2.40618e-09 2.15375e-09 -9.34237e-11 4.18088e-09 1.27655e-09 -5.45492e-11 2.40617e-09 7.73091 5.47488 0.417314 1.27655e-09 -5.4549e-11 2.40617e-09 2.90554 0.965183 0.102902 1.27656e-09 -5.45517e-11 2.40618e-09 10.2786 0.731801 0.0259123 1.27655e-09 -5.45515e-11 2.40618e-09 2.22167 -0.733487 -0.20892 -9.12175e-14 -1.32558e-12 -2.07202e-13 -63.52 22.0506 -12.4964 27.69 -29.0049 -65.6624 0.560064 -20.7693 3.05534 8.58104e-10 -1.89918e-09 -2.0943e-09 1.5142e-09 -3.27346e-09 -3.60459e-09 8.58091e-10 -1.89917e-09 -2.09429e-09 -7.73091 5.47488 -0.417314 8.58107e-10 -1.89918e-09 -2.0943e-09 -2.90554 0.965183 -0.102902 8.58096e-10 -1.89918e-09 -2.0943e-09 -10.2786 0.731801 -0.0259123 8.58106e-10 -1.89918e-09 -2.09431e-09 -2.22167 -0.733487 0.20892 -2.03217e-16 0.0 -3.88251e-19 2.44337 -28.482 2.8254 -1.31698 63.836 1.9443 -6.53751 -8.71784 -22.1158 2.03217e-16 0.0 3.88251e-19 -8.89768 -7.93724 -7.08362 0.0887974 29.911 -0.642572 8.70085 -19.315 20.5329
15.8693 84.1994 -1.19844 -194.695 77.99 162.651 -11.3292 14.2673 2.86684 0.151207 0.345253 0.540334 5.64033 4.13837 2.49922 -1.98251 -6.04872 4.06055 -0.0 0.0 0.0 -0.0 0.0 0.0 -9.21789e-14 -1.21974e-12 -1.77962e-13 67.2409 23.5072 12.4702 -26.8592 -25.8788 60.6871 -0.969695 -26.7933 -4.0698 1.16895e-09 -9.60527e-12 2.38055e-09 1.96697e-09 -1.54511e-11 4.13455e-09 1.16895e-09 -9.60289e-12 2.38054e-09 7.73091 5.47488 0.417314 1.16895e-09 -9.6019e-12 2.38054e-09 2.90554 0.965183 0.102902 1.16896e-09 -9.60478e-12 2.38054e-09 10.2786 0.731801 0.0259123 1.16895e-09 -9.60448e-12 2.38055e-09 2.22167 -0.733487 -0.20892 -9.23491e-14 -1.21974e-12 -1.7821e-13 -63.5955 22.1378 -12.9618 27.6788 -28.9537 -65.5815 0.564294 -20.8437 3.06731 7.20968e-10 -2.04205e-09 -2.2306e-09 1.27943e-09 -3.52339e-09 -3.84241e-09 7.20956e-10 -2.04204e-09 -2.23059e-09 -7.73091 5.47488 -0.417314 7.20971e-10 -2.04204e-09 -2.2306e-09 -2.90554 0.965183 -0.102902 7.20959e-10 -2.04204e-09 -2.2306e-09 -10.2786 0.731801 -0.0259123 7.2097e-10 -2.04204e-09 -2.23061e-09 -2.22167 -0.733487 0.20892 -2.03217e-16 0.0 -3.88251e-19 2.92099 -29.9479 3.50249 -1.11429 61.4034 1.77998 -7.31468 -10.1129 -23.1248 2.03217e-16 0.0 3.88251e-19 -9.37557 -6.41188 -6.71798 0.0749884 29.2636 -0.705655 9.03259 -19.7801 20.8677
17.4309 84.2159 -1.87224 -196.111 78.0413 161.21 -11.7328 14.3505 2.83115 0.486363 0.401544 0.533178 5.78157 4.20195 2.53134 -2.24799 -6.36262 4.06127 -0.0 0.0 0.0 -0.0 0.0 0.0 -3.58035e-14 -7.16034e-13 -1.29703e-13 67.2781 23.0214 12.2254 -26.9493 -26.1674 61.1265 -0.920106 -26.1648 -3.95915 7.19836e-10 3.08472e-10 5.12179e-10 1.22844e-09 5.36041e-10 8.9855e-10 7.19837e-10 3.08474e-10 5.12169e-10 7.73091 5.47488 0.417314 7.19837e-10 3.08476e-10 5.12174e-10 2.90554 0.965183 0.102902 7.19838e-10 3.08473e-10 5.12178e-10 10.2786 0.731801 0.0259123 7.19832e-10 3.08474e-10 5.1219e-10 2.22167 -0.733487 -0.20892 -3.59772e-14 -7.1603e-13 -1.2998e-13 -63.6868 22.1371 -13.5749 27.6794 -28.9568 -65.5869 0.570892 -20.9584 3.08581 5.57775e-10 -4.41599e-10 -3.02308e-10 9.67779e-10 -7.56314e-10 -5.14829e-10 5.57764e-10 -4.41593e-10 -3.02296e-10 -7.73091 5.47488 -0.417314 5.57779e-10 -4.41597e-10 -3.02311e-10 -2.90554 0.965183 -0.102902 5.57766e-10 -4.41596e-10 -3.02307e-10 -10.2786 0.731801 -0.0259123 5.57777e-10 -4.41597e-10 -3.02319e-10 -2.22167 -0.733487 0.20892 -2.03217e-16 0.0 -3.88251e-19 3.31887 -31.0253 4.39571 -0.90835 58.2182 1.58694 -7.84971 -10.9065 -24.087 2.03217e-16 0.0 3.88251e-19 -9.77545 -4.72389 -6.04189 0.0582106 28.1514 -0.742492 9.17186 -19.9441 21.0151
18.9711 84.2972 -2.55281 -198.994 78.0166 158.445 -12.2184 14.4061 2.85525 0.867108 0.544764 0.541361 5.92038 4.34039 2.55086 -2.54303 -6.96969 4.02591 -0.0 0.0 0.0 -0.0 0.0 0.0 5.99997e-14 8.39822e-14 -6.20674e-14 67.3577 22.4179 11.9329 -27.0616 -26.5421 61.7168 -0.870514 -25.5158 -3.84611 1.45141e-11 8.14549e-10 -2.56947e-09 7.23586e-11 1.41346e-09 -4.43824e-09 1.45141e-11 8.1455e-10 -2.56948e-09 7.73091 5.47488 0.417314 1.45143e-11 8.14551e-10 -2.56947e-09 2.90554 0.965183 0.102902 1.45122e-11 8.14549e-10 -2.56946e-09 10.2786 0.731801 0.0259123 1.45074e-11 8.14551e-10 -2.56945e-09 2.22167 -0.733487 -0.20892 5.98465e-14 8.39904e-14 -6.23749e-14 -63.7964 22.0744 -14.2891 27.6894 -29.002 -65.6585 0.579969 -21.1141 3.11099 3.44558e-10 2.27868e-09 2.95847e-09 5.49194e-10 3.9482e-09 5.11334e-09 3.44549e-10 2.27869e-09 2.95849e-09 -7.73091 5.47488 -0.417314 3.44562e-10 2.27868e-09 2.95847e-09 -2.90554 0.965183 -0.102902 3.44549e-10 2.27868e-09 2.95848e-09 -10.2786 0.731801 -0.0259123 3.44561e-10 2.27868e-09 2.95846e-09 -2.22167 -0.733487 0.20892 -2.03217e-16 0.0 -3.88251e-19 3.66369 -31.7501 5.4804 -0.71647 54.3123 1.38928 -8.20371 -11.291 -25.0214 2.03217e-16 0.0 3.88251e-19 -10.1721 -2.90462 -5.14848 0.0395448 26.6978 -0.762308 9.17296 -19.8785 21.0391
